<?xml version="1.0" standalone="no"?>
<!DOCTYPE svg PUBLIC "-//W3C//DTD SVG 20010904//EN"
 "http://www.w3.org/TR/2001/REC-SVG-20010904/DTD/svg10.dtd">
<svg version="1.0" xmlns="http://www.w3.org/2000/svg"
 width="512.000000pt" height="512.000000pt" viewBox="0 0 512.000000 512.000000"
 preserveAspectRatio="xMidYMid meet">

<g transform="translate(0.000000,512.000000) scale(0.100000,-0.100000)"
fill="#000000" stroke="none">
<path d="M4203 4785 c-127 -35 -253 -136 -307 -247 l-28 -57 -203 -3 c-223 -3
-229 -5 -279 -72 -21 -27 -21 -37 -24 -856 l-2 -828 -109 -4 c-118 -3 -141
-12 -185 -72 -29 -39 -29 -133 0 -172 44 -60 67 -69 185 -72 l109 -4 2 -828
c3 -819 3 -829 24 -856 50 -67 56 -69 279 -72 l203 -3 28 -57 c34 -71 132
-171 202 -206 194 -98 418 -62 565 93 186 195 180 491 -12 674 -153 146 -364
177 -553 81 -70 -35 -168 -135 -202 -206 l-28 -58 -94 0 -94 0 0 720 0 720 94
0 94 0 28 -57 c34 -72 132 -172 202 -207 189 -96 400 -65 553 81 192 183 198
479 12 674 -147 155 -371 191 -565 93 -70 -35 -168 -135 -202 -206 l-28 -58
-94 0 -94 0 0 720 0 720 94 0 94 0 28 -57 c34 -72 132 -172 202 -207 280 -142
608 7 687 311 89 341 -242 669 -582 578z m180 -319 c103 -43 128 -177 48 -257
-112 -113 -296 -12 -267 146 18 94 128 150 219 111z m0 -1760 c103 -43 128
-177 48 -257 -65 -65 -157 -65 -222 0 -124 123 13 325 174 257z m0 -1760 c103
-43 128 -177 48 -257 -65 -65 -157 -65 -222 0 -124 123 13 325 174 257z"/>
<path d="M985 3591 c-319 -137 -593 -259 -609 -272 -57 -46 -56 -30 -56 -759
0 -720 -1 -710 51 -756 36 -33 1191 -524 1231 -524 40 0 1192 491 1227 523 52
48 51 37 51 757 0 720 1 709 -51 757 -37 34 -1187 523 -1229 523 -23 -1 -233
-85 -615 -249z m973 -238 c188 -80 342 -149 342 -153 0 -14 -690 -302 -711
-297 -35 9 -689 291 -689 298 0 7 681 298 700 299 8 0 169 -66 358 -147z
m-518 -1204 l0 -466 -400 171 -400 171 0 466 0 467 400 -171 400 -172 0 -466z
m1120 343 l0 -467 -400 -172 -400 -171 0 467 0 466 398 171 c218 95 398 172
400 173 1 0 2 -209 2 -467z"/>
</g>
</svg>
