<svg width="24" height="24" viewBox="0 0 24 24" fill="none" xmlns="http://www.w3.org/2000/svg">
<path id="free-icon-settings-cog-70314 1 (Traced)" fill-rule="evenodd" clip-rule="evenodd" d="M10.6872 0.062787C10.0518 0.143137 9.87828 0.19661 9.6753 0.3749C9.45653 0.567073 9.35455 0.782747 8.99507 1.81355C8.71947 2.60383 8.68275 2.6807 8.55382 2.73793C8.47645 2.77222 8.26842 2.86186 8.09151 2.93709L7.76982 3.07387L6.84901 2.63675C5.81933 2.14799 5.57542 2.07224 5.28444 2.15062C5.04147 2.21605 4.94995 2.27492 4.40433 2.71663C3.62638 3.34644 2.49336 4.56867 2.25377 5.03651C2.02824 5.47686 2.07363 5.67856 2.68175 6.93724L3.08081 7.76316L2.94347 8.08643C2.86789 8.26421 2.77806 8.47299 2.74378 8.55038C2.68668 8.67937 2.60959 8.71624 1.81983 8.99242C0.788133 9.35318 0.572641 9.45477 0.384531 9.66909C0.197734 9.88195 0.15441 10.0274 0.0684665 10.7301C-0.0228222 11.477 -0.0228222 12.519 0.0684665 13.2658C0.154363 13.9682 0.197734 14.114 0.383968 14.3262C0.576017 14.545 0.670119 14.5899 1.75522 14.9796L2.69296 15.3165L2.88388 15.7797L3.07485 16.243L2.6788 17.0638C2.07377 18.3178 2.02848 18.5196 2.25377 18.9594C2.58624 19.6086 4.39411 21.4165 5.04363 21.7494C5.4809 21.9734 5.68467 21.9275 6.93622 21.3227L7.75674 20.9262L8.2204 21.1199L8.68402 21.3135L9.02015 22.2493C9.40922 23.3325 9.45409 23.4267 9.67268 23.6187C9.88137 23.8021 10.0255 23.8459 10.7086 23.9338C11.6971 24.0609 13.4301 23.9968 14.0084 23.8115C14.2023 23.7495 14.4646 23.5236 14.567 23.3306C14.6094 23.2505 14.7945 22.7643 14.9783 22.25L15.3125 21.315L15.7779 21.1206L16.2433 20.9262L17.0638 21.3227C18.3153 21.9275 18.5191 21.9734 18.9564 21.7494C19.6059 21.4165 21.4138 19.6086 21.7462 18.9594C21.9715 18.5196 21.9262 18.3178 21.3212 17.0638L20.9251 16.243L21.1161 15.7797L21.307 15.3165L22.2448 14.9796C23.3299 14.5899 23.424 14.545 23.616 14.3262C23.8023 14.114 23.8456 13.9682 23.9315 13.2658C24.0228 12.519 24.0228 11.477 23.9315 10.7301C23.8456 10.0274 23.8023 9.88195 23.6155 9.66909C23.4274 9.45477 23.2119 9.35318 22.1802 8.99242C21.3904 8.71624 21.3133 8.67937 21.2562 8.55038C21.2219 8.47299 21.1321 8.26421 21.0565 8.08643L20.9192 7.76316L21.3182 6.93724C21.9256 5.68001 21.9716 5.47663 21.7474 5.03876C21.5041 4.5636 20.2717 3.24381 19.5019 2.63403C19.0489 2.27525 18.9481 2.21324 18.7156 2.15062C18.4246 2.07224 18.1807 2.14799 17.151 2.63675L16.2302 3.07387L15.9085 2.93709C15.7316 2.86186 15.5235 2.77222 15.4462 2.73793C15.3172 2.6807 15.2805 2.60383 15.0049 1.81355C14.8396 1.33947 14.6563 0.854701 14.5977 0.73631C14.4726 0.483862 14.2288 0.255195 14.0084 0.183804C13.4594 0.00584311 11.6572 -0.0597784 10.6872 0.062787ZM12.6506 2.09372L12.9026 2.12426L13.2387 3.06496C13.4235 3.58233 13.6217 4.07156 13.6791 4.15219C13.8183 4.34779 14.0038 4.45497 14.5084 4.63153C14.7405 4.71267 15.1625 4.88693 15.4462 5.01878C16.2118 5.37452 16.2572 5.37006 17.3909 4.82919C17.8865 4.59269 18.3185 4.3992 18.3509 4.3992C18.428 4.3992 19.5957 5.56786 19.5957 5.64507C19.5957 5.67772 19.4035 6.10925 19.1687 6.60397C18.6324 7.73403 18.6247 7.80397 18.9594 8.50573C19.0819 8.76249 19.2559 9.18361 19.3461 9.44159C19.5399 9.99541 19.6298 10.1537 19.8388 10.3087C19.9243 10.3721 20.4162 10.5749 20.9319 10.7593L21.8697 11.0947L21.9119 11.5463C21.9368 11.8138 21.9368 12.1821 21.9119 12.4496L21.8697 12.9012L20.9273 13.238C20.409 13.4233 19.9277 13.6198 19.8579 13.6748C19.6346 13.8505 19.5403 14.0107 19.3588 14.5228C19.2612 14.7981 19.0814 15.2335 18.9591 15.4902C18.6233 16.1952 18.6316 16.2704 19.1688 17.3971C19.4036 17.8896 19.5957 18.3198 19.5957 18.353C19.5957 18.4299 18.4297 19.5967 18.3529 19.5967C18.3214 19.5967 17.89 19.4045 17.3943 19.1696C16.2621 18.6331 16.1922 18.6254 15.4908 18.9602C15.2342 19.0827 14.8132 19.2568 14.5553 19.3471C14.0017 19.5409 13.8435 19.6308 13.6886 19.84C13.6252 19.9255 13.4225 20.4176 13.2381 20.9336L12.9029 21.8717L12.4515 21.9139C12.1841 21.9389 11.8159 21.9389 11.5485 21.9139L11.0971 21.8717L10.7619 20.9336C10.5775 20.4176 10.3748 19.9255 10.3114 19.84C10.1565 19.6308 9.99826 19.5409 9.44467 19.3471C9.18679 19.2568 8.76584 19.0827 8.50918 18.9602C7.80771 18.6254 7.7378 18.6331 6.6082 19.1696C6.11368 19.4045 5.68153 19.5967 5.64786 19.5967C5.56825 19.5967 4.40433 18.4329 4.40433 18.3533C4.40433 18.3199 4.59642 17.8896 4.83123 17.3971C5.36851 16.2702 5.37676 16.195 5.04058 15.4902C4.91811 15.2335 4.74412 14.8123 4.65386 14.5543C4.46012 14.0005 4.37024 13.8423 4.16117 13.6872C4.0757 13.6238 3.58381 13.4211 3.06805 13.2366L2.13032 12.9012L2.08812 12.4496C2.06317 12.1821 2.06317 11.8139 2.08812 11.5465L2.13032 11.0949L3.06805 10.76C3.58381 10.5758 4.0757 10.373 4.16117 10.3093C4.37038 10.1533 4.46026 9.99508 4.65386 9.44159C4.74412 9.18361 4.91811 8.76249 5.04058 8.50573C5.37531 7.80397 5.36762 7.73403 4.83128 6.60397C4.59647 6.10925 4.40433 5.67772 4.40433 5.64507C4.40433 5.56894 5.57139 4.3992 5.64735 4.3992C5.67871 4.3992 6.10998 4.59142 6.60567 4.82633C7.7453 5.36635 7.79434 5.37119 8.55382 5.01855C8.83748 4.88683 9.25946 4.71267 9.49155 4.63153C9.99624 4.45497 10.1817 4.34779 10.3209 4.15219C10.3783 4.07156 10.5765 3.58233 10.7612 3.06496L11.0972 2.12426L11.3259 2.09644C11.64 2.05826 12.3458 2.05681 12.6506 2.09372ZM11.186 7.05089C10.0579 7.26445 9.13184 7.79787 8.36805 8.67398C7.60304 9.55154 7.16306 10.8528 7.23901 12.0131C7.33171 13.4288 8.02329 14.7243 9.1399 15.5741C9.52015 15.8634 10.2709 16.2325 10.7341 16.3577C11.5277 16.5723 12.4723 16.5723 13.2659 16.3577C13.7291 16.2325 14.4798 15.8634 14.8601 15.5741C15.7221 14.9181 16.3528 13.9675 16.6159 12.9277C17.2685 10.3491 15.7046 7.7617 13.1018 7.11384C12.5957 6.98789 11.6781 6.95773 11.186 7.05089ZM12.8229 9.20847C13.6761 9.46402 14.3699 10.1986 14.6027 11.0928C14.6937 11.4421 14.6918 12.0743 14.5988 12.4334C14.4013 13.1957 13.8747 13.8289 13.1487 14.1768C12.0226 14.7166 10.7031 14.4128 9.90552 13.4302C9.51443 12.9483 9.32745 12.4063 9.32745 11.7548C9.32745 10.18 10.6285 8.97296 12.211 9.07957C12.3399 9.0883 12.6153 9.14627 12.8229 9.20847Z" fill="#2563EB"/>
</svg>
