<svg width="256" height="256" viewBox="0 0 256 256" fill="none" xmlns="http://www.w3.org/2000/svg">
<rect width="256" height="256" fill="white"/>
<rect width="256" height="256" fill="url(#paint0_linear_234_323)"/>
<rect x="20" y="63" width="216" height="130" rx="5" fill="#FAFAFA"/>
<path d="M45.7955 103.436V101.227H57.4006V103.436H52.9048V115.772H50.2912V103.436H45.7955ZM59.1841 115.772V104.863H61.7552V115.772H59.1841ZM60.4768 103.315C60.0696 103.315 59.7192 103.18 59.4256 102.91C59.1321 102.635 58.9853 102.306 58.9853 101.923C58.9853 101.535 59.1321 101.205 59.4256 100.936C59.7192 100.661 60.0696 100.524 60.4768 100.524C60.8887 100.524 61.2391 100.661 61.5279 100.936C61.8215 101.205 61.9682 101.535 61.9682 101.923C61.9682 102.306 61.8215 102.635 61.5279 102.91C61.2391 103.18 60.8887 103.315 60.4768 103.315ZM69.5064 104.863V106.852H63.2351V104.863H69.5064ZM64.7834 102.249H67.3544V112.491C67.3544 112.837 67.4065 113.102 67.5107 113.286C67.6196 113.466 67.7616 113.589 67.9368 113.656C68.112 113.722 68.3062 113.755 68.5192 113.755C68.6802 113.755 68.827 113.743 68.9596 113.72C69.0969 113.696 69.201 113.675 69.2721 113.656L69.7053 115.666C69.568 115.713 69.3715 115.765 69.1158 115.822C68.8649 115.879 68.5571 115.912 68.1925 115.921C67.5486 115.94 66.9686 115.843 66.4525 115.63C65.9364 115.412 65.5268 115.076 65.2238 114.622C64.9255 114.167 64.7787 113.599 64.7834 112.917V102.249ZM74.122 101.227V115.772H71.551V101.227H74.122ZM81.2554 115.985C80.1617 115.985 79.2171 115.758 78.4216 115.303C77.6309 114.844 77.0225 114.195 76.5963 113.357C76.1702 112.515 75.9571 111.523 75.9571 110.382C75.9571 109.259 76.1702 108.275 76.5963 107.427C77.0272 106.575 77.6285 105.912 78.4003 105.438C79.1721 104.96 80.0788 104.721 81.1205 104.721C81.7928 104.721 82.4273 104.83 83.0239 105.048C83.6252 105.261 84.1555 105.592 84.6148 106.042C85.0788 106.492 85.4434 107.065 85.7085 107.761C85.9737 108.452 86.1063 109.276 86.1063 110.232V111.021H77.1645V109.288H83.6418C83.637 108.795 83.5305 108.357 83.3222 107.974C83.1138 107.586 82.8226 107.28 82.4486 107.058C82.0793 106.835 81.6484 106.724 81.156 106.724C80.6304 106.724 80.1688 106.852 79.771 107.107C79.3733 107.358 79.0632 107.69 78.8406 108.102C78.6228 108.509 78.5116 108.956 78.5068 109.444V110.957C78.5068 111.591 78.6228 112.136 78.8548 112.59C79.0869 113.04 79.4112 113.386 79.8279 113.627C80.2445 113.864 80.7322 113.982 81.2909 113.982C81.665 113.982 82.0035 113.93 82.3065 113.826C82.6096 113.717 82.8724 113.559 83.0949 113.35C83.3174 113.142 83.4855 112.884 83.5992 112.576L85.9997 112.846C85.8482 113.481 85.5594 114.035 85.1333 114.508C84.7119 114.977 84.1721 115.341 83.5139 115.602C82.8558 115.857 82.1029 115.985 81.2554 115.985Z" fill="black"/>
<rect x="45.8136" y="138.586" width="85.7246" height="21.8283" rx="10.9142" stroke="black" stroke-width="1.62726"/>
<path d="M118.087 145.703L122.193 149.296C122.317 149.404 122.317 149.596 122.193 149.704L118.087 153.297" stroke="black" stroke-width="1.62726" stroke-linecap="round"/>
<defs>
<linearGradient id="paint0_linear_234_323" x1="140.19" y1="256" x2="140.19" y2="34.0382" gradientUnits="userSpaceOnUse">
<stop stop-color="#DEE5FA"/>
<stop offset="0.717335" stop-color="#DEE5FA"/>
</linearGradient>
</defs>
</svg>
