<svg width="256" height="256" viewBox="0 0 256 256" fill="none" xmlns="http://www.w3.org/2000/svg">
<rect width="256" height="256" fill="white"/>
<rect width="256" height="256" fill="url(#paint0_linear_234_315)"/>
<rect x="20" y="63" width="216" height="130" rx="5" fill="#FAFAFA"/>
<path d="M45.7955 89.5716V87.3627H57.4006V89.5716H52.9048V101.908H50.2912V89.5716H45.7955ZM59.1841 101.908V90.9991H61.7552V101.908H59.1841ZM60.4768 89.4508C60.0696 89.4508 59.7192 89.3159 59.4256 89.046C59.1321 88.7714 58.9853 88.4423 58.9853 88.0588C58.9853 87.6705 59.1321 87.3414 59.4256 87.0716C59.7192 86.7969 60.0696 86.6596 60.4768 86.6596C60.8887 86.6596 61.2391 86.7969 61.5279 87.0716C61.8215 87.3414 61.9682 87.6705 61.9682 88.0588C61.9682 88.4423 61.8215 88.7714 61.5279 89.046C61.2391 89.3159 60.8887 89.4508 60.4768 89.4508ZM69.5064 90.9991V92.9877H63.2351V90.9991H69.5064ZM64.7834 88.3855H67.3544V98.627C67.3544 98.9726 67.4065 99.2377 67.5107 99.4224C67.6196 99.6023 67.7616 99.7254 67.9368 99.7917C68.112 99.858 68.3062 99.8912 68.5192 99.8912C68.6802 99.8912 68.827 99.8793 68.9596 99.8556C69.0969 99.832 69.201 99.8107 69.2721 99.7917L69.7053 101.802C69.568 101.849 69.3715 101.901 69.1158 101.958C68.8649 102.015 68.5571 102.048 68.1925 102.057C67.5486 102.076 66.9686 101.979 66.4525 101.766C65.9364 101.548 65.5268 101.212 65.2238 100.758C64.9255 100.303 64.7787 99.7349 64.7834 99.0531V88.3855ZM74.122 87.3627V101.908H71.551V87.3627H74.122ZM81.2554 102.121C80.1617 102.121 79.2171 101.894 78.4216 101.439C77.6309 100.98 77.0225 100.331 76.5963 99.4934C76.1702 98.6506 75.9571 97.6587 75.9571 96.5176C75.9571 95.3954 76.1702 94.4106 76.5963 93.563C77.0272 92.7108 77.6285 92.0479 78.4003 91.5744C79.1721 91.0962 80.0788 90.8571 81.1205 90.8571C81.7928 90.8571 82.4273 90.966 83.0239 91.1838C83.6252 91.3968 84.1555 91.7283 84.6148 92.1781C85.0788 92.6279 85.4434 93.2008 85.7085 93.8968C85.9737 94.5881 86.1063 95.412 86.1063 96.3684V97.1568H77.1645V95.4238H83.6418C83.637 94.9314 83.5305 94.4934 83.3222 94.1099C83.1138 93.7217 82.8226 93.4163 82.4486 93.1937C82.0793 92.9712 81.6484 92.8599 81.156 92.8599C80.6304 92.8599 80.1688 92.9877 79.771 93.2434C79.3733 93.4944 79.0632 93.8258 78.8406 94.2377C78.6228 94.6449 78.5116 95.0924 78.5068 95.5801V97.0929C78.5068 97.7273 78.6228 98.2718 78.8548 98.7264C79.0869 99.1762 79.4112 99.5218 79.8279 99.7633C80.2445 100 80.7322 100.118 81.2909 100.118C81.665 100.118 82.0035 100.066 82.3065 99.9622C82.6096 99.8533 82.8724 99.6947 83.0949 99.4863C83.3174 99.278 83.4855 99.0199 83.5992 98.7122L85.9997 98.9821C85.8482 99.6165 85.5594 100.171 85.1333 100.644C84.7119 101.113 84.1721 101.477 83.5139 101.738C82.8558 101.993 82.1029 102.121 81.2554 102.121Z" fill="black"/>
<path d="M49.375 129.908H46.233V119.726H49.5142C50.5019 119.726 51.3471 119.93 52.0497 120.338C52.7524 120.742 53.291 121.324 53.6655 122.083C54.04 122.839 54.2273 123.743 54.2273 124.797C54.2273 125.858 54.0384 126.771 53.6605 127.537C53.2827 128.299 52.7325 128.886 52.0099 129.297C51.2874 129.704 50.4091 129.908 49.375 129.908ZM47.4659 128.814H49.2955C50.1373 128.814 50.835 128.652 51.3885 128.327C51.942 128.002 52.3546 127.54 52.6264 126.94C52.8982 126.34 53.0341 125.626 53.0341 124.797C53.0341 123.975 52.8999 123.268 52.6314 122.675C52.3629 122.078 51.9619 121.621 51.4283 121.302C50.8946 120.981 50.2301 120.82 49.4347 120.82H47.4659V128.814ZM59.2101 130.067C58.4743 130.067 57.8396 129.905 57.3059 129.58C56.7756 129.252 56.3663 128.795 56.078 128.208C55.7929 127.618 55.6504 126.932 55.6504 126.15C55.6504 125.367 55.7929 124.678 56.078 124.081C56.3663 123.482 56.7674 123.014 57.2811 122.68C57.7981 122.341 58.4014 122.172 59.0907 122.172C59.4885 122.172 59.8812 122.239 60.269 122.371C60.6568 122.504 61.0098 122.719 61.328 123.018C61.6461 123.313 61.8997 123.704 62.0886 124.191C62.2775 124.678 62.372 125.278 62.372 125.991V126.488H56.4856V125.474H61.1788C61.1788 125.043 61.0926 124.658 60.9203 124.32C60.7513 123.982 60.5093 123.715 60.1944 123.52C59.8829 123.324 59.515 123.226 59.0907 123.226C58.6234 123.226 58.2191 123.342 57.8777 123.574C57.5396 123.803 57.2794 124.101 57.0971 124.469C56.9149 124.837 56.8237 125.232 56.8237 125.653V126.329C56.8237 126.905 56.9231 127.394 57.122 127.795C57.3242 128.193 57.6042 128.496 57.9622 128.705C58.3202 128.911 58.7361 129.013 59.2101 129.013C59.5183 129.013 59.7967 128.97 60.0453 128.884C60.2972 128.795 60.5143 128.662 60.6966 128.486C60.8789 128.307 61.0197 128.085 61.1192 127.82L62.2527 128.138C62.1334 128.523 61.9328 128.861 61.6511 129.153C61.3694 129.441 61.0214 129.666 60.6071 129.829C60.1928 129.988 59.7271 130.067 59.2101 130.067ZM69.4379 123.982L68.3839 124.28C68.3176 124.105 68.2199 123.934 68.0906 123.768C67.9646 123.599 67.7923 123.46 67.5735 123.351C67.3548 123.241 67.0747 123.187 66.7333 123.187C66.266 123.187 65.8766 123.294 65.565 123.51C65.2568 123.722 65.1027 123.992 65.1027 124.32C65.1027 124.612 65.2087 124.842 65.4208 125.011C65.633 125.18 65.9644 125.321 66.4152 125.434L67.5487 125.712C68.2315 125.878 68.7402 126.131 69.075 126.473C69.4097 126.811 69.5771 127.247 69.5771 127.78C69.5771 128.218 69.4511 128.609 69.1993 128.954C68.9507 129.298 68.6027 129.57 68.1552 129.769C67.7078 129.968 67.1874 130.067 66.5941 130.067C65.8153 130.067 65.1706 129.898 64.6602 129.56C64.1498 129.222 63.8266 128.728 63.6907 128.079L64.8044 127.8C64.9104 128.211 65.111 128.519 65.4059 128.725C65.7042 128.93 66.0937 129.033 66.5743 129.033C67.1211 129.033 67.5553 128.917 67.8768 128.685C68.2016 128.45 68.364 128.168 68.364 127.84C68.364 127.575 68.2712 127.353 68.0856 127.174C67.9 126.992 67.615 126.856 67.2305 126.766L65.9578 126.468C65.2584 126.302 64.7447 126.045 64.4166 125.697C64.0918 125.346 63.9294 124.907 63.9294 124.38C63.9294 123.949 64.0503 123.568 64.2923 123.236C64.5376 122.905 64.8707 122.645 65.2916 122.456C65.7158 122.267 66.1964 122.172 66.7333 122.172C67.489 122.172 68.0823 122.338 68.5132 122.67C68.9474 123.001 69.2556 123.439 69.4379 123.982ZM74.3175 130.067C73.6016 130.067 72.9851 129.898 72.4681 129.56C71.951 129.222 71.5533 128.756 71.2749 128.163C70.9965 127.57 70.8573 126.892 70.8573 126.13C70.8573 125.354 70.9998 124.67 71.2849 124.077C71.5732 123.48 71.9742 123.014 72.488 122.68C73.005 122.341 73.6082 122.172 74.2976 122.172C74.8346 122.172 75.3185 122.272 75.7493 122.471C76.1802 122.67 76.5332 122.948 76.8083 123.306C77.0834 123.664 77.2541 124.081 77.3204 124.559H76.1471C76.0576 124.211 75.8587 123.903 75.5505 123.634C75.2456 123.362 74.8346 123.226 74.3175 123.226C73.8601 123.226 73.4591 123.346 73.1144 123.584C72.773 123.82 72.5062 124.153 72.314 124.584C72.1251 125.011 72.0306 125.513 72.0306 126.09C72.0306 126.68 72.1234 127.194 72.309 127.631C72.4979 128.069 72.7631 128.408 73.1045 128.65C73.4492 128.892 73.8535 129.013 74.3175 129.013C74.6225 129.013 74.8992 128.96 75.1478 128.854C75.3964 128.748 75.6068 128.596 75.7792 128.397C75.9515 128.198 76.0742 127.959 76.1471 127.681H77.3204C77.2541 128.132 77.09 128.538 76.8282 128.899C76.5697 129.257 76.2266 129.542 75.7991 129.754C75.3748 129.963 74.881 130.067 74.3175 130.067ZM82.2286 122.272V123.266H78.2712V122.272H82.2286ZM79.4246 120.442H80.5979V127.721C80.5979 128.052 80.646 128.301 80.7421 128.466C80.8415 128.629 80.9675 128.738 81.1199 128.795C81.2757 128.848 81.4398 128.874 81.6121 128.874C81.7414 128.874 81.8474 128.867 81.9303 128.854C82.0132 128.838 82.0794 128.824 82.1292 128.814L82.3678 129.868C82.2882 129.898 82.1772 129.928 82.0347 129.958C81.8922 129.991 81.7115 130.008 81.4928 130.008C81.1614 130.008 80.8365 129.936 80.5184 129.794C80.2035 129.651 79.9417 129.434 79.7328 129.143C79.5274 128.851 79.4246 128.483 79.4246 128.039V120.442ZM83.8655 129.908V122.272H85.0388V129.908H83.8655ZM84.4621 120.999C84.2334 120.999 84.0362 120.921 83.8705 120.765C83.7081 120.61 83.6269 120.422 83.6269 120.204C83.6269 119.985 83.7081 119.798 83.8705 119.642C84.0362 119.486 84.2334 119.408 84.4621 119.408C84.6908 119.408 84.8863 119.486 85.0487 119.642C85.2145 119.798 85.2973 119.985 85.2973 120.204C85.2973 120.422 85.2145 120.61 85.0487 120.765C84.8863 120.921 84.6908 120.999 84.4621 120.999ZM87.0598 132.772V122.272H88.1933V123.485H88.3325C88.4187 123.352 88.538 123.183 88.6905 122.978C88.8462 122.769 89.0683 122.583 89.3566 122.421C89.6483 122.255 90.0427 122.172 90.5399 122.172C91.1829 122.172 91.7496 122.333 92.2402 122.655C92.7307 122.976 93.1135 123.432 93.3886 124.022C93.6637 124.612 93.8012 125.308 93.8012 126.11C93.8012 126.919 93.6637 127.62 93.3886 128.213C93.1135 128.803 92.7324 129.26 92.2451 129.585C91.7579 129.907 91.1961 130.067 90.5598 130.067C90.0692 130.067 89.6765 129.986 89.3815 129.824C89.0865 129.658 88.8595 129.471 88.7004 129.262C88.5413 129.05 88.4187 128.874 88.3325 128.735H88.2331V132.772H87.0598ZM88.2132 126.09C88.2132 126.667 88.2977 127.175 88.4667 127.616C88.6358 128.054 88.8827 128.397 89.2075 128.645C89.5323 128.891 89.93 129.013 90.4007 129.013C90.8912 129.013 91.3005 128.884 91.6287 128.626C91.9601 128.364 92.2087 128.012 92.3744 127.572C92.5434 127.127 92.628 126.634 92.628 126.09C92.628 125.553 92.5451 125.069 92.3794 124.638C92.217 124.204 91.97 123.861 91.6386 123.609C91.3105 123.354 90.8978 123.226 90.4007 123.226C89.9234 123.226 89.5224 123.347 89.1976 123.589C88.8727 123.828 88.6275 124.163 88.4618 124.594C88.296 125.021 88.2132 125.52 88.2132 126.09ZM98.784 122.272V123.266H94.8267V122.272H98.784ZM95.9801 120.442H97.1534V127.721C97.1534 128.052 97.2014 128.301 97.2975 128.466C97.397 128.629 97.5229 128.738 97.6754 128.795C97.8312 128.848 97.9952 128.874 98.1676 128.874C98.2968 128.874 98.4029 128.867 98.4857 128.854C98.5686 128.838 98.6349 128.824 98.6846 128.814L98.9232 129.868C98.8437 129.898 98.7327 129.928 98.5902 129.958C98.4476 129.991 98.267 130.008 98.0482 130.008C97.7168 130.008 97.392 129.936 97.0738 129.794C96.7589 129.651 96.4971 129.434 96.2883 129.143C96.0828 128.851 95.9801 128.483 95.9801 128.039V120.442ZM100.421 129.908V122.272H101.594V129.908H100.421ZM101.018 120.999C100.789 120.999 100.592 120.921 100.426 120.765C100.264 120.61 100.182 120.422 100.182 120.204C100.182 119.985 100.264 119.798 100.426 119.642C100.592 119.486 100.789 119.408 101.018 119.408C101.246 119.408 101.442 119.486 101.604 119.642C101.77 119.798 101.853 119.985 101.853 120.204C101.853 120.422 101.77 120.61 101.604 120.765C101.442 120.921 101.246 120.999 101.018 120.999ZM106.717 130.067C106.028 130.067 105.423 129.903 104.903 129.575C104.386 129.247 103.981 128.788 103.69 128.198C103.401 127.608 103.257 126.919 103.257 126.13C103.257 125.334 103.401 124.64 103.69 124.047C103.981 123.453 104.386 122.993 104.903 122.665C105.423 122.336 106.028 122.172 106.717 122.172C107.407 122.172 108.01 122.336 108.527 122.665C109.048 122.993 109.452 123.453 109.74 124.047C110.032 124.64 110.178 125.334 110.178 126.13C110.178 126.919 110.032 127.608 109.74 128.198C109.452 128.788 109.048 129.247 108.527 129.575C108.01 129.903 107.407 130.067 106.717 130.067ZM106.717 129.013C107.241 129.013 107.672 128.879 108.01 128.611C108.348 128.342 108.598 127.989 108.761 127.552C108.923 127.114 109.004 126.64 109.004 126.13C109.004 125.619 108.923 125.144 108.761 124.703C108.598 124.262 108.348 123.906 108.01 123.634C107.672 123.362 107.241 123.226 106.717 123.226C106.194 123.226 105.763 123.362 105.425 123.634C105.087 123.906 104.837 124.262 104.674 124.703C104.512 125.144 104.431 125.619 104.431 126.13C104.431 126.64 104.512 127.114 104.674 127.552C104.837 127.989 105.087 128.342 105.425 128.611C105.763 128.879 106.194 129.013 106.717 129.013ZM113.014 125.314V129.908H111.841V122.272H112.974V123.465H113.074C113.253 123.077 113.524 122.766 113.889 122.53C114.254 122.292 114.724 122.172 115.301 122.172C115.818 122.172 116.27 122.278 116.658 122.491C117.046 122.699 117.348 123.018 117.563 123.445C117.778 123.869 117.886 124.406 117.886 125.056V129.908H116.713V125.135C116.713 124.536 116.557 124.068 116.246 123.733C115.934 123.395 115.506 123.226 114.963 123.226C114.588 123.226 114.254 123.308 113.959 123.47C113.667 123.632 113.437 123.869 113.268 124.181C113.099 124.492 113.014 124.87 113.014 125.314ZM127.033 122.272V123.266H123.075V122.272H127.033ZM124.229 120.442H125.402V127.721C125.402 128.052 125.45 128.301 125.546 128.466C125.646 128.629 125.772 128.738 125.924 128.795C126.08 128.848 126.244 128.874 126.416 128.874C126.545 128.874 126.652 128.867 126.734 128.854C126.817 128.838 126.884 128.824 126.933 128.814L127.172 129.868C127.092 129.898 126.981 129.928 126.839 129.958C126.696 129.991 126.516 130.008 126.297 130.008C125.965 130.008 125.641 129.936 125.322 129.794C125.008 129.651 124.746 129.434 124.537 129.143C124.331 128.851 124.229 128.483 124.229 128.039V120.442ZM131.789 130.067C131.054 130.067 130.419 129.905 129.885 129.58C129.355 129.252 128.946 128.795 128.657 128.208C128.372 127.618 128.23 126.932 128.23 126.15C128.23 125.367 128.372 124.678 128.657 124.081C128.946 123.482 129.347 123.014 129.86 122.68C130.377 122.341 130.981 122.172 131.67 122.172C132.068 122.172 132.46 122.239 132.848 122.371C133.236 122.504 133.589 122.719 133.907 123.018C134.225 123.313 134.479 123.704 134.668 124.191C134.857 124.678 134.951 125.278 134.951 125.991V126.488H129.065V125.474H133.758C133.758 125.043 133.672 124.658 133.5 124.32C133.33 123.982 133.089 123.715 132.774 123.52C132.462 123.324 132.094 123.226 131.67 123.226C131.203 123.226 130.798 123.342 130.457 123.574C130.119 123.803 129.859 124.101 129.676 124.469C129.494 124.837 129.403 125.232 129.403 125.653V126.329C129.403 126.905 129.502 127.394 129.701 127.795C129.903 128.193 130.183 128.496 130.541 128.705C130.899 128.911 131.315 129.013 131.789 129.013C132.098 129.013 132.376 128.97 132.625 128.884C132.876 128.795 133.094 128.662 133.276 128.486C133.458 128.307 133.599 128.085 133.698 127.82L134.832 128.138C134.713 128.523 134.512 128.861 134.23 129.153C133.949 129.441 133.601 129.666 133.186 129.829C132.772 129.988 132.306 130.067 131.789 130.067ZM137.278 122.272L139.108 125.394L140.937 122.272H142.289L139.823 126.09L142.289 129.908H140.937L139.108 126.945L137.278 129.908H135.926L138.352 126.09L135.926 122.272H137.278ZM147.157 122.272V123.266H143.199V122.272H147.157ZM144.353 120.442H145.526V127.721C145.526 128.052 145.574 128.301 145.67 128.466C145.769 128.629 145.895 128.738 146.048 128.795C146.204 128.848 146.368 128.874 146.54 128.874C146.669 128.874 146.775 128.867 146.858 128.854C146.941 128.838 147.007 128.824 147.057 128.814L147.296 129.868C147.216 129.898 147.105 129.928 146.963 129.958C146.82 129.991 146.639 130.008 146.421 130.008C146.089 130.008 145.764 129.936 145.446 129.794C145.131 129.651 144.87 129.434 144.661 129.143C144.455 128.851 144.353 128.483 144.353 128.039V120.442Z" fill="black"/>
<rect x="45.8136" y="152.449" width="85.7246" height="21.8283" rx="10.9142" stroke="black" stroke-width="1.62726"/>
<path d="M118.087 159.567L122.193 163.159C122.317 163.267 122.317 163.46 122.193 163.568L118.087 167.16" stroke="black" stroke-width="1.62726" stroke-linecap="round"/>
<defs>
<linearGradient id="paint0_linear_234_315" x1="140.19" y1="256" x2="140.19" y2="34.0382" gradientUnits="userSpaceOnUse">
<stop stop-color="#DEE5FA"/>
<stop offset="0.717335" stop-color="#DEE5FA"/>
</linearGradient>
</defs>
</svg>
